# xmcd
#
# Track frame offsets:
#	300
#	15180
#	25341
#	40711
#	52297
#	62764
#	75530
#	87878
#	102824
#	113024
#	121745
#	136301
#	145488
#	157893
#	164881
#
# Disc length: 2357 seconds
#
# Revision: 0
# Processed by: cddbd v1.4PL0 Copyright (c) Steve Scherf et al.
# Submitted via: audiograbber 1.81.02
#
DISCID=bf09310f
DTITLE=Sourdough Slim - Rock and Rye
DYEAR=2001
DGENRE=
TTITLE0=When The Work's All Done This Fall
TTITLE1=Old Faithful
TTITLE2=Cowpuncher Blues
TTITLE3=Bunkhouse Billy
TTITLE4=Lonesome Whistle
TTITLE5=Yellow Rose of Texas
TTITLE6=Lady Be Good
TTITLE7=The Last Round-Up
TTITLE8=Ridin' Out On The Lonely Prairie
TTITLE9=La Nopalera
TTITLE10=Rock and Rye
TTITLE11=Ten Gallon Hat
TTITLE12=If I Could Only Learn To Yodel
TTITLE13=Prairie Musette
TTITLE14=Take My Boots Off
EXTD=
EXTT0=
EXTT1=
EXTT2=
EXTT3=
EXTT4=
EXTT5=
EXTT6=
EXTT7=
EXTT8=
EXTT9=
EXTT10=
EXTT11=
EXTT12=
EXTT13=
EXTT14=
PLAYORDER=
